<mxfile host="65bd71144e">
    <diagram id="caly-architecture" name="Caly Architecture">
        <mxGraphModel dx="870" dy="456" grid="1" gridSize="10" guides="1" tooltips="1" connect="1" arrows="1" fold="1" page="1" pageScale="1" pageWidth="1169" pageHeight="827" math="0" shadow="0">
            <root>
                <mxCell id="0"/>
                <mxCell id="1" parent="0"/>
                <mxCell id="frontend" value="Frontend&#xa;(React)" style="rounded=1;whiteSpace=wrap;html=1;fillColor=#A3BE8C;strokeColor=#81A176;strokeWidth=3;fontSize=16;fontStyle=1;fontColor=#2E3440;shadow=1;" parent="1" vertex="1">
                    <mxGeometry x="150" y="200" width="150" height="100" as="geometry"/>
                </mxCell>
                <mxCell id="api-routes" value="Next.js API&#xa;Routes" style="rounded=1;whiteSpace=wrap;html=1;fillColor=#5E81AC;strokeColor=#4C6A8F;strokeWidth=3;fontSize=16;fontStyle=1;fontColor=#ECEFF4;shadow=1;" parent="1" vertex="1">
                    <mxGeometry x="420" y="200" width="150" height="100" as="geometry"/>
                </mxCell>
                <mxCell id="external-apis-container" value="External APIs" style="rounded=1;whiteSpace=wrap;html=1;fillColor=#BF616A;strokeColor=#A14A56;strokeWidth=3;fontSize=16;fontStyle=1;fontColor=#ECEFF4;shadow=1;" parent="1" vertex="1">
                    <mxGeometry x="660" y="180" width="170" height="140" as="geometry"/>
                </mxCell>
                <mxCell id="arrow1" value="" style="endArrow=classic;startArrow=classic;html=1;rounded=0;strokeColor=#4C566A;strokeWidth=3;entryX=0;entryY=0.5;entryDx=0;entryDy=0;exitX=1;exitY=0.5;exitDx=0;exitDy=0;" parent="1" source="frontend" target="api-routes" edge="1">
                    <mxGeometry width="50" height="50" relative="1" as="geometry">
                        <mxPoint x="320" y="250" as="sourcePoint"/>
                        <mxPoint x="430" y="250" as="targetPoint"/>
                    </mxGeometry>
                </mxCell>
                <mxCell id="arrow2" value="" style="endArrow=classic;html=1;rounded=0;strokeColor=#4C566A;strokeWidth=3;entryX=0;entryY=0.5;entryDx=0;entryDy=0;exitX=1;exitY=0.5;exitDx=0;exitDy=0;" parent="1" source="api-routes" target="external-apis-container" edge="1">
                    <mxGeometry width="50" height="50" relative="1" as="geometry">
                        <mxPoint x="620" y="250" as="sourcePoint"/>
                        <mxPoint x="730" y="250" as="targetPoint"/>
                    </mxGeometry>
                </mxCell>
                <mxCell id="label1" value="HTTP Requests&#xa;Components" style="text;html=1;strokeColor=none;fillColor=none;align=center;verticalAlign=middle;whiteSpace=wrap;rounded=0;fontSize=10;fontColor=#4C566A;fontStyle=2;" parent="1" vertex="1">
                    <mxGeometry x="310" y="220" width="100" height="30" as="geometry"/>
                </mxCell>
                <mxCell id="label2" value="API Calls&#xa;Webhooks" style="text;html=1;strokeColor=none;fillColor=none;align=center;verticalAlign=middle;whiteSpace=wrap;rounded=0;fontSize=10;fontColor=#4C566A;fontStyle=2;" parent="1" vertex="1">
                    <mxGeometry x="570" y="220" width="80" height="30" as="geometry"/>
                </mxCell>
                <mxCell id="frontend-details" value="• React Components&#xa;• User Interface&#xa;• State Management&#xa;• User Interactions" style="rounded=1;whiteSpace=wrap;html=1;fillColor=#ECEFF4;strokeColor=#D8DEE9;strokeWidth=2;fontSize=10;fontColor=#2E3440;align=left;verticalAlign=top;spacingTop=8;spacingLeft=8;" parent="1" vertex="1">
                    <mxGeometry x="150" y="310" width="150" height="80" as="geometry"/>
                </mxCell>
                <mxCell id="api-details" value="• Route Handlers&#xa;• Authentication&#xa;• Data Processing&#xa;• External API Integration" style="rounded=1;whiteSpace=wrap;html=1;fillColor=#ECEFF4;strokeColor=#D8DEE9;strokeWidth=2;fontSize=10;fontColor=#2E3440;align=left;verticalAlign=top;spacingTop=8;spacingLeft=8;" parent="1" vertex="1">
                    <mxGeometry x="420" y="310" width="150" height="70" as="geometry"/>
                </mxCell>
                <mxCell id="external-details" value="• Calendar Integration (Google)&lt;br&gt;• AI Processing (Gemini)&lt;br&gt;• User Authentication (Firebase)&lt;br&gt;• Database (Firestore)&lt;br&gt;• Payments (LemonSqueezy)" style="rounded=1;whiteSpace=wrap;html=1;fillColor=#ECEFF4;strokeColor=#D8DEE9;strokeWidth=2;fontSize=10;fontColor=#2E3440;align=left;verticalAlign=top;spacingTop=8;spacingLeft=8;" parent="1" vertex="1">
                    <mxGeometry x="660" y="330" width="170" height="90" as="geometry"/>
                </mxCell>
                <mxCell id="connection1" value="" style="endArrow=none;dashed=1;html=1;rounded=0;strokeColor=#D8DEE9;strokeWidth=2;entryX=0.5;entryY=0;entryDx=0;entryDy=0;exitX=0.5;exitY=1;exitDx=0;exitDy=0;" parent="1" source="frontend" target="frontend-details" edge="1">
                    <mxGeometry width="50" height="50" relative="1" as="geometry">
                        <mxPoint x="225" y="310" as="sourcePoint"/>
                        <mxPoint x="225" y="320" as="targetPoint"/>
                    </mxGeometry>
                </mxCell>
                <mxCell id="connection2" value="" style="endArrow=none;dashed=1;html=1;rounded=0;strokeColor=#D8DEE9;strokeWidth=2;entryX=0.5;entryY=0;entryDx=0;entryDy=0;exitX=0.5;exitY=1;exitDx=0;exitDy=0;" parent="1" source="api-routes" target="api-details" edge="1">
                    <mxGeometry width="50" height="50" relative="1" as="geometry">
                        <mxPoint x="495" y="310" as="sourcePoint"/>
                        <mxPoint x="495" y="320" as="targetPoint"/>
                    </mxGeometry>
                </mxCell>
                <mxCell id="connection3" value="" style="endArrow=none;dashed=1;html=1;rounded=0;strokeColor=#D8DEE9;strokeWidth=2;entryX=0.5;entryY=0;entryDx=0;entryDy=0;exitX=0.5;exitY=1;exitDx=0;exitDy=0;" parent="1" source="external-apis-container" target="external-details" edge="1">
                    <mxGeometry width="50" height="50" relative="1" as="geometry">
                        <mxPoint x="850" y="360" as="sourcePoint"/>
                        <mxPoint x="850" y="370" as="targetPoint"/>
                    </mxGeometry>
                </mxCell>
            </root>
        </mxGraphModel>
    </diagram>
</mxfile>